<svg xmlns="http://www.w3.org/2000/svg" viewBox="0 0 1600 900" width="1600" height="900">
  <defs>
    <radialGradient id="bg" cx="50%" cy="45%" r="75%">
      <stop offset="0%" stop-color="#0a2830"/>
      <stop offset="55%" stop-color="#050a0e"/>
      <stop offset="100%" stop-color="#020508"/>
    </radialGradient>
    <radialGradient id="glow" cx="50%" cy="50%" r="50%">
      <stop offset="0%" stop-color="#7fffd4" stop-opacity="0.35"/>
      <stop offset="45%" stop-color="#00e676" stop-opacity="0.12"/>
      <stop offset="100%" stop-color="#000" stop-opacity="0"/>
    </radialGradient>
    <filter id="blur" x="-20%" y="-20%" width="140%" height="140%">
      <feGaussianBlur stdDeviation="18" result="b"/>
      <feMerge>
        <feMergeNode in="b"/>
        <feMergeNode in="SourceGraphic"/>
      </feMerge>
    </filter>
    <linearGradient id="stroke" x1="0%" y1="0%" x2="100%" y2="100%">
      <stop offset="0%" stop-color="#b8fff0"/>
      <stop offset="50%" stop-color="#00e676"/>
      <stop offset="100%" stop-color="#4af"/>
    </linearGradient>
  </defs>
  <rect width="1600" height="900" fill="url(#bg)"/>
  <circle cx="800" cy="420" r="380" fill="url(#glow)" opacity="0.9"/>
  <g fill="none" stroke="url(#stroke)" stroke-width="3" stroke-linecap="round" opacity="0.92" filter="url(#blur)">
    <ellipse cx="800" cy="420" rx="280" ry="160" transform="rotate(-8 800 420)"/>
    <ellipse cx="800" cy="420" rx="220" ry="125" transform="rotate(6 800 420)"/>
    <ellipse cx="800" cy="420" rx="165" ry="92" transform="rotate(-4 800 420)"/>
  </g>
  <g fill="none" stroke="url(#stroke)" stroke-width="2.2" stroke-linecap="round" opacity="0.88">
    <path d="M 800 280 L 800 560 M 620 420 L 980 420"/>
    <circle cx="800" cy="420" r="48" opacity="0.95"/>
    <path d="M 785 400 L 825 420 L 785 440 Z" fill="rgba(184,255,240,0.25)" stroke="none"/>
  </g>
  <g fill="#b8fff0" opacity="0.35">
    <circle cx="420" cy="220" r="4"/>
    <circle cx="1180" cy="260" r="3"/>
    <circle cx="320" cy="520" r="2.5"/>
    <circle cx="1320" cy="580" r="3.5"/>
    <circle cx="520" cy="680" r="2"/>
    <circle cx="1080" cy="720" r="2.5"/>
  </g>
</svg>
